<svg aria-hidden="true" style="position: absolute; width: 0; height: 0; overflow: hidden;" version="1.1" xmlns="http://www.w3.org/2000/svg" xmlns:xlink="http://www.w3.org/1999/xlink">
<defs>
<symbol id="icon-close" viewBox="0 0 32 32">
<path d="M18.121 16l5.938-5.938c0.272-0.272 0.441-0.647 0.441-1.063 0-0.829-0.672-1.501-1.501-1.501-0.414 0-0.789 0.168-1.061 0.439l-5.937 5.937-5.938-5.938c-0.272-0.272-0.648-0.44-1.063-0.44-0.83 0-1.503 0.673-1.503 1.503 0 0.415 0.168 0.791 0.44 1.063l5.938 5.938-5.938 5.938c-0.272 0.272-0.44 0.648-0.44 1.063 0 0.83 0.673 1.503 1.503 1.503 0.415 0 0.791-0.168 1.063-0.44l5.938-5.938 5.938 5.938c0.272 0.272 0.648 0.44 1.063 0.44 0.83 0 1.503-0.673 1.503-1.503 0-0.415-0.168-0.791-0.44-1.063v0z"></path>
</symbol>
<symbol id="icon-bag" viewBox="0 0 32 32">
<path d="M28.416 10.588c-0.36-0.363-0.86-0.588-1.411-0.588-0.002 0-0.003 0-0.005 0h-4v-1c0-3.866-3.134-7-7-7s-7 3.134-7 7v0 1h-4c-1.105 0-2 0.895-2 2v0 13.5c0 2.438 2.063 4.5 4.5 4.5h17c0 0 0.001 0 0.001 0 1.228 0 2.341-0.49 3.154-1.285l-0.001 0.001c0.828-0.791 1.344-1.904 1.345-3.137v-13.578c0-0.002 0-0.004 0-0.006 0-0.55-0.223-1.047-0.584-1.406l-0-0zM11 9c0-2.761 2.239-5 5-5s5 2.239 5 5v0 1h-10z"></path>
</symbol>
<symbol id="icon-lock-closed" viewBox="0 0 32 32">
<path d="M23 12h-1v-5c0-3.314-2.686-6-6-6s-6 2.686-6 6v0 5h-1c-2.208 0.002-3.998 1.792-4 4v11c0.003 2.208 1.792 3.997 4 4h14c2.208-0.003 3.997-1.792 4-4v-11c-0.003-2.208-1.792-3.998-4-4h-0zM20 12h-8v-5c0-2.209 1.791-4 4-4s4 1.791 4 4v0z"></path>
</symbol>
<symbol id="icon-logo-instagram" viewBox="0 0 32 32">
<path d="M21.833 4.333c3.218 0.010 5.824 2.616 5.834 5.833v11.667c-0.010 3.218-2.616 5.824-5.833 5.834h-11.667c-3.218-0.010-5.824-2.616-5.834-5.833v-11.667c0.010-3.218 2.616-5.824 5.833-5.834h11.667zM21.833 2h-11.666c-4.492 0-8.167 3.675-8.167 8.167v11.666c0 4.492 3.675 8.167 8.167 8.167h11.666c4.492 0 8.167-3.675 8.167-8.167v-11.666c0-4.492-3.675-8.167-8.167-8.167z"></path>
<path d="M23.583 10.167c-0.966 0-1.75-0.784-1.75-1.75s0.784-1.75 1.75-1.75c0.966 0 1.75 0.784 1.75 1.75v0c0 0.001 0 0.002 0 0.004 0 0.964-0.782 1.746-1.746 1.746-0.001 0-0.003 0-0.004 0h0zM16 11.333c2.577 0 4.667 2.089 4.667 4.667s-2.089 4.667-4.667 4.667c-2.577 0-4.667-2.089-4.667-4.667v0c0.003-2.576 2.091-4.664 4.667-4.667h0zM16 9c-3.866 0-7 3.134-7 7s3.134 7 7 7c3.866 0 7-3.134 7-7v0c0-3.866-3.134-7-7-7v0z"></path>
</symbol>
<symbol id="icon-logo-mail" viewBox="0 0 32 32">
<path d="M26.5 5h-21c-1.932 0.002-3.498 1.568-3.5 3.5v15c0.002 1.932 1.568 3.498 3.5 3.5h21c1.932-0.002 3.498-1.568 3.5-3.5v-15c-0.002-1.932-1.568-3.498-3.5-3.5h-0zM25.614 10.789l-9 7c-0.168 0.131-0.381 0.21-0.614 0.21s-0.446-0.079-0.616-0.212l0.002 0.002-9-7c-0.242-0.184-0.397-0.473-0.397-0.798 0-0.552 0.448-1 1-1 0.237 0 0.455 0.083 0.627 0.221l-0.002-0.002 8.386 6.523 8.386-6.523c0.166-0.126 0.375-0.202 0.603-0.202 0.552 0 1 0.448 1 1 0 0.315-0.146 0.596-0.373 0.779l-0.002 0.002z"></path>
</symbol>
<symbol id="icon-person-circle" viewBox="0 0 32 32">
<path d="M16.181 3c-7.311-0.099-13.28 5.87-13.181 13.181 0.098 7.012 5.807 12.721 12.819 12.819 7.313 0.1 13.28-5.869 13.18-13.18-0.096-7.013-5.806-12.723-12.817-12.82zM24.082 23.453c-0.046 0.049-0.111 0.080-0.184 0.080-0.082 0-0.154-0.039-0.2-0.1l-0-0.001c-0.562-0.73-1.231-1.345-1.991-1.831l-0.031-0.019c-1.591-1.021-3.607-1.584-5.677-1.584s-4.086 0.563-5.677 1.584c-0.791 0.504-1.46 1.119-2.008 1.831l-0.013 0.018c-0.046 0.061-0.119 0.1-0.2 0.1-0.072 0-0.138-0.031-0.183-0.080l-0-0c-1.769-1.905-2.869-4.452-2.917-7.255l-0-0.010c-0.102-6.082 4.889-11.172 10.973-11.188s11.027 4.926 11.027 11c0 0.002 0 0.005 0 0.008 0 2.878-1.109 5.497-2.924 7.452l0.006-0.007z"></path>
<path d="M16 9c-1.232 0-2.347 0.462-3.139 1.301s-1.188 2-1.098 3.246c0.181 2.453 2.082 4.453 4.237 4.453s4.052-2 4.237-4.453c0.093-1.234-0.3-2.384-1.105-3.239-0.795-0.844-1.907-1.309-3.132-1.309z"></path>
</symbol>
<symbol id="icon-trash" viewBox="0 0 32 32">
<path d="M27 6h-6v-1.5c0-1.381-1.119-2.5-2.5-2.5v0h-5c-1.381 0-2.5 1.119-2.5 2.5v0 1.5h-6c-0.552 0-1 0.448-1 1s0.448 1 1 1v0h1.063l1.188 19.058c0.089 1.678 1.375 2.942 3 2.942h11.5c1.633 0 2.894-1.236 3-2.938l1.188-19.063h1.063c0.552 0 1-0.448 1-1s-0.448-1-1-1v0zM12.036 26h-0.036c-0 0-0 0-0.001 0-0.54 0-0.98-0.428-0.999-0.963l-0-0.002-0.5-14c-0-0.011-0.001-0.023-0.001-0.036 0-0.553 0.448-1.001 1.001-1.001 0.54 0 0.98 0.428 1 0.963l0 0.002 0.5 14c0 0.011 0.001 0.023 0.001 0.036 0 0.54-0.428 0.98-0.963 0.999l-0.002 0zM17 25c0 0.552-0.448 1-1 1s-1-0.448-1-1v0-14c0-0.552 0.448-1 1-1s1 0.448 1 1v0zM19 6h-6v-1.5c-0-0.002-0-0.004-0-0.006 0-0.273 0.221-0.494 0.494-0.494 0.002 0 0.004 0 0.006 0h5c0.002-0 0.004-0 0.006-0 0.273 0 0.494 0.221 0.494 0.494 0 0.002 0 0.004-0 0.006v-0zM21 25.036c-0.020 0.537-0.46 0.964-0.999 0.964-0 0-0 0-0.001 0h-0.036c-0.537-0.020-0.964-0.46-0.964-0.999 0-0.013 0-0.025 0.001-0.038l-0 0.002 0.5-14c0.020-0.537 0.46-0.965 1-0.965 0.553 0 1.001 0.448 1.001 1.001 0 0.013-0 0.025-0.001 0.037l0-0.002z"></path>
</symbol>
<symbol id="icon-plus" viewBox="0 0 32 32">
<path stroke-linejoin="round" stroke-linecap="round" stroke-miterlimit="4" stroke-width="2" d="M16 7v18M25 16h-18"></path>
</symbol>
<symbol id="icon-minus" viewBox="0 0 32 32">
<path stroke-linejoin="round" stroke-linecap="round" stroke-miterlimit="4" stroke-width="2" d="M25 16h-18"></path>
</symbol>
<symbol id="icon-back" viewBox="0 0 32 32">
<path stroke-linejoin="round" stroke-linecap="round" stroke-miterlimit="4" stroke-width="3" d="M20.5 7l-9 9 9 9"></path>
</symbol>
<symbol id="icon-down" viewBox="0 0 32 32">
<path stroke="currentColor" stroke-linejoin="round" stroke-linecap="round" stroke-miterlimit="4" stroke-width="3" d="M7 11.5l9 9 9-9"></path>
</symbol>
</defs>
</svg>
